HIERARCHY
ROOT Hips
{
	OFFSET 0.000000 89.005402 0.000000
	CHANNELS 6 Xposition Yposition Zposition Xrotation Yrotation Zrotation
	JOINT Spine
	{
		OFFSET 0.116900 10.681000 0.373400
		CHANNELS 3 Xrotation Yrotation Zrotation
		JOINT Spine1
		{
			OFFSET 0.000000 13.840401 0.053500
			CHANNELS 3 Xrotation Yrotation Zrotation
			JOINT Spine2
			{
				OFFSET 0.000000 14.712700 -0.366200
				CHANNELS 3 Xrotation Yrotation Zrotation
				JOINT Neck
				{
					OFFSET 0.000000 35.415497 -3.314200
					CHANNELS 3 Xrotation Yrotation Zrotation
					JOINT Head
					{
						OFFSET 0.000000 16.899200 1.218300
						CHANNELS 3 Xrotation Yrotation Zrotation
						JOINT HeadTop_End
						{
							OFFSET 0.000000 22.206207 2.192500
							CHANNELS 3 Xrotation Yrotation Zrotation
							End Site
							{
								OFFSET 0.000000 22.314178 0.000000
							}
						}
					}
				}
				JOINT LeftShoulder
				{
					OFFSET 12.896400 26.716293 -4.548400
					CHANNELS 3 Xrotation Yrotation Zrotation
					JOINT LeftArm
					{
						OFFSET 19.027000 -4.857010 -1.718400
						CHANNELS 3 Xrotation Yrotation Zrotation
						JOINT LeftForeArm
						{
							OFFSET 24.179897 0.000000 0.000000
							CHANNELS 3 Xrotation Yrotation Zrotation
							JOINT LeftHand
							{
								OFFSET 27.156403 0.000000 0.000000
								CHANNELS 3 Xrotation Yrotation Zrotation
								JOINT LeftHandIndex1
								{
									OFFSET 16.441200 0.000000 0.000000
									CHANNELS 3 Xrotation Yrotation Zrotation
									JOINT LeftHandIndex2
									{
										OFFSET 4.821899 0.000000 0.000000
										CHANNELS 3 Xrotation Yrotation Zrotation
										JOINT LeftHandIndex3
										{
											OFFSET 6.386497 0.000000 0.000000
											CHANNELS 3 Xrotation Yrotation Zrotation
											JOINT LeftHandIndex4
											{
												OFFSET 5.188988 0.000000 0.000000
												CHANNELS 3 Xrotation Yrotation Zrotation
												End Site
												{
													OFFSET -0.178703 5.185913 0.000177
												}
											}
										}
									}
								}
								JOINT LeftHandThumb1
								{
									OFFSET 6.534897 -5.032593 5.900300
									CHANNELS 3 Xrotation Yrotation Zrotation
									JOINT LeftHandThumb2
									{
										OFFSET 3.818176 -2.204422 2.204423
										CHANNELS 3 Xrotation Yrotation Zrotation
										JOINT LeftHandThumb3
										{
											OFFSET 3.252098 -1.877594 1.877601
											CHANNELS 3 Xrotation Yrotation Zrotation
											JOINT LeftHandThumb4
											{
												OFFSET 5.251778 -3.032120 3.032117
												CHANNELS 3 Xrotation Yrotation Zrotation
												End Site
												{
													OFFSET 0.000023 6.780014 0.000000
												}
											}
										}
									}
								}
							}
						}
					}
				}
				JOINT RightShoulder
				{
					OFFSET -12.896300 26.716293 -4.548400
					CHANNELS 3 Xrotation Yrotation Zrotation
					JOINT RightArm
					{
						OFFSET -19.027000 -4.857010 -1.718400
						CHANNELS 3 Xrotation Yrotation Zrotation
						JOINT RightForeArm
						{
							OFFSET -24.179897 0.000000 0.000000
							CHANNELS 3 Xrotation Yrotation Zrotation
							JOINT RightHand
							{
								OFFSET -27.156403 0.000000 0.000000
								CHANNELS 3 Xrotation Yrotation Zrotation
								JOINT RightHandThumb1
								{
									OFFSET -6.591202 -4.852203 5.988100
									CHANNELS 3 Xrotation Yrotation Zrotation
									JOINT RightHandThumb2
									{
										OFFSET -3.818176 -2.204422 2.204423
										CHANNELS 3 Xrotation Yrotation Zrotation
										JOINT RightHandThumb3
										{
											OFFSET -3.252098 -1.877594 1.877601
											CHANNELS 3 Xrotation Yrotation Zrotation
											JOINT RightHandThumb4
											{
												OFFSET -5.251778 -3.032120 3.032117
												CHANNELS 3 Xrotation Yrotation Zrotation
												End Site
												{
													OFFSET -0.000023 6.780014 0.000000
												}
											}
										}
									}
								}
								JOINT RightHandIndex1
								{
									OFFSET -16.029404 0.000000 0.000000
									CHANNELS 3 Xrotation Yrotation Zrotation
									JOINT RightHandIndex2
									{
										OFFSET -5.213303 0.000000 0.000000
										CHANNELS 3 Xrotation Yrotation Zrotation
										JOINT RightHandIndex3
										{
											OFFSET -6.386528 0.000000 0.000000
											CHANNELS 3 Xrotation Yrotation Zrotation
											JOINT RightHandIndex4
											{
												OFFSET -5.189026 0.000000 0.000000
												CHANNELS 3 Xrotation Yrotation Zrotation
												End Site
												{
													OFFSET 0.236702 5.183624 0.001972
												}
											}
										}
									}
								}
							}
						}
					}
				}
			}
		}
	}
	JOINT LeftUpLeg
	{
		OFFSET 14.073000 -7.904099 -1.463000
		CHANNELS 3 Xrotation Yrotation Zrotation
		JOINT LeftLeg
		{
			OFFSET -0.109806 -34.073280 4.093200
			CHANNELS 3 Xrotation Yrotation Zrotation
			JOINT LeftFoot
			{
				OFFSET 0.109806 -29.899420 -6.319000
				CHANNELS 3 Xrotation Yrotation Zrotation
				JOINT LeftToeBase
				{
					OFFSET 1.551100 -14.988700 20.535801
					CHANNELS 3 Xrotation Yrotation Zrotation
					JOINT LeftToe_End
					{
						OFFSET 0.221200 0.570800 13.248301
						CHANNELS 3 Xrotation Yrotation Zrotation
						End Site
						{
							OFFSET 0.000000 13.262435 0.000000
						}
					}
				}
			}
		}
	}
	JOINT RightUpLeg
	{
		OFFSET -13.839300 -7.904099 -1.463000
		CHANNELS 3 Xrotation Yrotation Zrotation
		JOINT RightLeg
		{
			OFFSET 0.109694 -34.073219 4.093300
			CHANNELS 3 Xrotation Yrotation Zrotation
			JOINT RightFoot
			{
				OFFSET -0.109694 -29.899384 -6.319200
				CHANNELS 3 Xrotation Yrotation Zrotation
				JOINT RightToeBase
				{
					OFFSET -1.551100 -14.988700 20.535801
					CHANNELS 3 Xrotation Yrotation Zrotation
					JOINT RightToe_End
					{
						OFFSET -0.221200 0.570900 13.248299
						CHANNELS 3 Xrotation Yrotation Zrotation
						End Site
						{
							OFFSET 0.000000 13.262440 0.000000
						}
					}
				}
			}
		}
	}
}
MOTION
Frames: 7
Frame Time: 0.033333
0.080597 37.125854 6.274540 -15.690440 -0.148972 -0.398858 6.652112 -0.209496 -1.409259 13.294713 -0.768692 -2.833932 13.294705 -0.768692 -2.833932 17.525627 0.472319 -7.190168 5.794646 1.975369 -8.982884 0.000002 0.000002 0.000003 0.755611 -2.895878 2.252492 -0.696015 -14.265191 -50.079862 -155.694736 -61.711872 -166.080653 7.323937 -3.319313 57.713295 3.461670 20.219289 -51.868562 -3.366608 4.100955 -78.429805 0.000003 0.000005 0.000003 0.000000 0.000001 -0.000003 14.960846 18.639810 -9.200756 -12.066088 20.893484 -7.995482 0.000003 0.000005 -0.000007 0.000001 -0.000000 -0.000001 3.921735 18.156147 1.922599 -44.124354 34.779935 73.169385 175.555464 67.312983 -170.804562 20.775984 4.931111 -30.194924 3.795774 -3.178165 -2.674501 -4.420148 -30.470679 -9.422061 0.000002 -0.000005 -0.000009 0.000000 0.000001 -0.000000 20.945328 -12.634390 84.419164 -4.539514 -4.693350 114.595029 0.000008 0.000005 -0.000009 -0.000000 -0.000000 -0.000000 -92.991420 5.065530 12.392667 57.020574 9.896034 -1.403671 11.413548 -24.822292 2.058501 -0.016199 -0.014998 -0.124789 0.000002 -0.000000 -0.000000 -95.862627 -2.204603 -5.018863 65.572357 1.498098 2.042411 6.569781 -4.659813 -6.425572 -0.001704 -0.017096 0.035096 -0.000003 0.000001 0.000000 
0.099532 37.162277 6.272755 -15.484131 -0.210090 -0.333810 6.729102 -0.211148 -1.365497 13.449006 -0.766834 -2.744817 13.448997 -0.766834 -2.744817 17.490699 0.505138 -7.450669 6.595539 1.948054 -9.214940 0.000001 -0.000001 -0.000001 0.747542 -3.146207 2.141954 -0.097261 -14.122561 -49.162749 -155.807994 -61.047835 -166.266407 6.904950 -3.788717 58.826322 3.434002 20.163439 -51.813439 -3.364651 4.099836 -78.499692 0.000002 0.000005 -0.000000 -0.000000 -0.000000 0.000001 14.613350 18.829749 -8.922904 -12.060928 20.855289 -7.995309 0.000003 0.000007 -0.000007 0.000000 0.000000 -0.000000 3.921732 18.156149 1.922598 -44.616257 35.180033 73.349975 175.685060 66.716960 -170.806584 20.330919 4.939001 -30.093072 3.804208 -3.084020 -3.017508 -4.568691 -30.166155 -9.271245 0.000001 -0.000011 -0.000008 -0.000000 0.000004 -0.000000 20.864816 -12.450541 84.191698 -4.384870 -4.745512 115.022202 0.000008 0.000002 -0.000005 -0.000001 0.000001 -0.000002 -93.109562 5.013009 12.392546 56.995343 9.970730 -1.392446 11.294263 -24.776093 1.947657 0.022727 -0.014806 -0.123077 -0.000003 0.000000 0.000000 -96.054583 -2.472759 -5.205462 65.441880 1.545793 2.049205 6.694406 -4.522331 -6.612910 -0.001655 -0.016755 0.033732 -0.000002 0.000000 -0.000000 
0.092134 37.224678 6.267187 -15.410730 -0.154134 -0.309518 6.782854 -0.199012 -1.364610 13.556904 -0.735867 -2.741387 13.556898 -0.735867 -2.741386 17.420459 0.501580 -7.483843 7.457710 1.810789 -9.064235 -0.000000 -0.000001 -0.000000 0.749979 -3.126803 2.153998 0.132799 -14.673336 -48.385221 -155.499611 -60.907447 -166.051912 6.506903 -4.112074 59.795943 3.410021 20.048796 -51.782010 -3.365206 4.099185 -78.428842 0.000003 0.000004 0.000001 -0.000000 -0.000001 -0.000002 14.118063 19.010430 -8.596116 -11.999298 20.668359 -7.995334 0.000003 0.000009 -0.000006 -0.000000 -0.000001 -0.000001 3.921732 18.156149 1.922598 -44.783426 35.159481 73.325530 175.718446 66.237843 -170.779796 20.241774 4.691428 -30.079661 4.053242 -3.083589 -3.192288 -4.989568 -30.095279 -9.328289 0.000000 -0.000006 -0.000009 -0.000001 -0.000004 0.000000 20.819803 -12.228186 84.076063 -4.231830 -4.795209 115.365747 0.000010 0.000004 -0.000011 0.000001 -0.000002 -0.000005 -93.099645 5.115494 12.437284 56.969484 9.947484 -1.403269 10.968790 -24.859233 1.858165 0.039222 -0.014552 -0.120315 -0.000003 -0.000000 -0.000000 -96.062396 -2.585942 -5.373001 65.399963 1.541995 2.049674 6.671052 -4.299310 -6.602866 -0.001579 -0.016410 0.032371 0.000003 -0.000000 -0.000001 
0.116745 37.211044 6.293316 -15.266239 -0.180006 -0.213901 6.838604 -0.178094 -1.339731 13.668996 -0.698899 -2.695587 13.668998 -0.698899 -2.695586 17.186769 0.503921 -7.519606 8.868871 1.704700 -9.164631 0.000000 0.000000 0.000000 0.753432 -3.117431 2.156381 0.355452 -14.719599 -48.081038 -155.377556 -60.538931 -166.013581 6.249394 -4.602366 60.332133 3.420403 19.942049 -51.845507 -3.365058 4.098797 -78.418324 0.000002 0.000004 -0.000000 0.000000 -0.000000 0.000001 13.793676 19.102799 -8.399379 -11.874692 20.313293 -7.994333 0.000003 0.000010 -0.000006 0.000000 0.000002 0.000001 3.921733 18.156147 1.922598 -45.046242 35.399078 73.343241 175.785546 65.736500 -170.729389 20.481471 4.004318 -30.034473 3.691800 -2.758672 -3.709651 -4.729386 -29.422642 -8.857014 0.000000 -0.000006 -0.000009 -0.000001 -0.000005 0.000000 20.721599 -11.952733 84.013943 -4.081909 -4.842340 115.727269 0.000010 0.000006 -0.000009 0.000002 -0.000003 -0.000001 -93.226796 5.040001 12.407290 57.027572 10.012625 -1.396419 10.800322 -24.899641 1.588103 0.067424 -0.014318 -0.117919 -0.000000 0.000000 -0.000000 -96.286031 -2.642083 -5.518784 65.411718 1.621414 2.063500 6.754853 -4.167742 -6.629544 -0.001533 -0.016075 0.030994 0.000005 0.000000 -0.000000 
0.144551 37.170639 6.326797 -15.183271 -0.200121 -0.098539 6.859979 -0.151106 -1.301287 13.712537 -0.646575 -2.623956 13.712532 -0.646576 -2.623958 16.906238 0.486187 -7.646391 9.331591 1.341782 -9.118040 -0.000001 0.000001 -0.000003 0.755216 -3.077679 2.167992 0.444159 -14.640671 -48.207841 -155.110441 -60.408823 -165.795520 6.031217 -5.202785 60.450883 3.605962 19.889460 -52.392216 -3.364260 4.098118 -78.470206 0.000002 0.000005 -0.000002 -0.000001 0.000001 -0.000002 13.756497 19.110890 -8.379676 -11.864197 20.261696 -7.994531 0.000003 0.000009 -0.000006 -0.000000 0.000000 -0.000000 3.921736 18.156149 1.922599 -45.140843 35.662607 73.391202 175.722900 65.577493 -170.601788 20.640420 3.913139 -30.152983 3.457218 -2.402048 -4.147038 -4.668256 -28.917891 -8.538783 0.000000 -0.000002 -0.000009 -0.000000 0.000002 -0.000000 20.547553 -11.733214 83.783793 -3.935704 -4.886467 116.133242 0.000009 0.000003 -0.000009 0.000003 0.000000 0.000004 -93.320294 4.907874 12.326785 57.112300 10.119204 -1.378238 10.771133 -24.896992 1.344916 0.071248 -0.014035 -0.115064 0.000002 -0.000000 0.000000 -96.494030 -2.664125 -5.638688 65.483155 1.711664 2.078025 6.811962 -4.074273 -6.719854 -0.001435 -0.015732 0.029621 0.000001 -0.000000 -0.000001 
0.170981 37.133110 6.349159 -15.168351 -0.193374 0.032092 6.863353 -0.131125 -1.256495 13.720049 -0.600357 -2.537277 13.720045 -0.600356 -2.537276 16.684178 0.501567 -7.684559 9.684088 1.324586 -9.187167 0.000000 0.000000 -0.000000 0.757691 -3.037303 2.180702 0.432676 -14.486024 -48.559674 -154.703935 -60.466101 -165.428971 5.831966 -5.874807 60.361319 3.732180 19.837514 -52.770690 -3.364085 4.096807 -78.503886 0.000002 0.000006 -0.000002 -0.000000 0.000000 -0.000000 13.686370 19.135467 -8.335607 -11.851209 20.202526 -7.994147 0.000003 0.000010 -0.000006 0.000000 -0.000000 -0.000001 3.921734 18.156147 1.922598 -45.275029 35.793275 73.426084 175.624231 65.528862 -170.451879 20.801577 3.881669 -30.165206 3.377613 -2.134255 -4.484795 -4.654587 -28.449922 -8.256432 0.000000 -0.000000 -0.000009 -0.000000 0.000005 -0.000000 20.481304 -11.477032 83.738406 -3.792719 -4.927887 116.527112 0.000012 0.000003 -0.000011 -0.000002 0.000001 0.000001 -93.311565 4.793995 12.084270 57.195178 10.226753 -1.363450 10.569885 -24.686575 1.157335 0.069645 -0.013751 -0.112275 -0.000001 -0.000000 0.000000 -96.631344 -2.655688 -5.761145 65.574754 1.803533 2.090778 6.856272 -4.019235 -6.866017 -0.001381 -0.015383 0.028247 0.000002 0.000000 -0.000000 
0.178504 37.112053 6.362383 -15.190201 -0.189347 0.091173 6.856668 -0.110635 -1.219130 13.707297 -0.557910 -2.466610 13.707298 -0.557910 -2.466611 16.574825 0.516810 -7.662290 9.915658 1.366817 -9.135700 -0.000001 -0.000000 0.000001 0.760404 -3.001828 2.187776 0.446886 -14.556976 -48.696650 -154.258402 -60.641527 -164.992167 5.551899 -6.372882 60.415270 3.655294 19.679595 -52.605444 -3.364226 4.096185 -78.509118 0.000002 0.000006 0.000000 -0.000000 -0.000001 0.000004 13.348722 19.209530 -8.147723 -11.694705 19.758976 -7.990748 0.000003 0.000009 -0.000007 -0.000000 -0.000003 -0.000001 3.921735 18.156147 1.922599 -45.277119 35.802595 73.439840 175.457738 65.607068 -170.293309 21.008158 3.983861 -30.204924 3.237577 -1.929531 -4.867600 -4.595696 -27.936316 -7.939237 0.000000 -0.000002 -0.000009 -0.000000 0.000001 -0.000000 20.476707 -11.252692 83.707390 -3.652416 -4.967650 116.843145 0.000011 0.000009 -0.000012 -0.000003 0.000001 -0.000002 -93.268255 4.774488 11.997279 57.158161 10.301944 -1.349040 10.671526 -24.746808 1.076527 0.067779 -0.013454 -0.109418 0.000002 0.000000 0.000000 -96.686082 -2.589405 -5.776639 65.665616 1.851044 2.098014 6.829326 -4.061672 -6.864992 -0.001341 -0.015047 0.026856 -0.000004 -0.000001 -0.000000 
